#!OML:ASF F:\VICON\USERDATA\INSTALL\rory3\rory3.ASF
:FULLY-SPECIFIED
:DEGREES
11
root -0.06896770000000052 17.7726 12.096299999999992 0.12477500000000008 -5.353979999999998 -7.608079999999992
lfemur -26.420699999999975 -4.303909999999997 -11.436800000000007
ltibia 17.19600000000002
lfoot -7.597569999999998 7.666440000000004
ltoes 1.6736400000000011
rfemur 10.992300000000007 4.871600000000003 34.04290000000002
rtibia 24.497500000000013
rfoot -18.154399999999974 -0.814299000000009
rtoes -0.6463440000000107
lowerback nan 2.2419700000000025 7.198939999999995
upperback -0.14818799999999988 3.785440000000002 1.8088400000000007
thorax -4.5777100000000015 1.72317 -2.600799999999996
lowerneck -17.6866 -2.8107900000000003 -1.2144100000000007
upperneck 20.4529 -3.67841 0.47390499999999985
head 9.40442 -1.75426 -0.11991300000000042
lclavicle -1.0793399999999983e-14 -1.4362200000000006e-14
lhumerus -39.51379999999999 15.417000000000002 76.8659
lradius 16.9581
lwrist 1.1039100000000062
lhand -27.124900000000004 22.1644
lfingers nan
lthumb -0.5407630000000014 52.1435
rclavicle -1.0793399999999983e-14 -1.4362200000000006e-14
rhumerus -19.43289999999999 -8.730400000000019 -82.70850000000002
rradius 32.92170000000001
rwrist -2.498049999999994
rhand -19.424 nan
rfingers nan
rthumb 6.895879999999998 -7.29764
12
root 0.009971460000000043 17.7495 12.978299999999997 -0.6018160000000039 -5.69455 -6.9725399999999915
lfemur -26.439600000000034 -3.85757 -13.177700000000003
ltibia 23.06019999999999
lfoot -4.775520000000005 1.7842199999999924
ltoes 1.6229599999999995
rfemur 12.000000000000007 4.840020000000003 32.77539999999999
rtibia 29.03500000000001
rfoot -14.985099999999987 1.4145299999999912
rtoes -1.7407000000000048
lowerback nan 2.387849999999998 6.842810000000011
upperback -0.3140239999999992 3.976179999999995 1.67581
thorax -4.927710000000001 1.807969999999997 -2.5858299999999943
lowerneck -16.8798 -3.05429 -1.2793500000000004
upperneck 20.435800000000004 -3.9930200000000005 0.4003770000000004
head 9.25295 -1.91919 -0.1626429999999996
lclavicle 2.300470000000002e-14 3.478730000000025e-16
lhumerus -40.53420000000002 15.880400000000012 76.0411
lradius 16.283600000000014
lwrist -2.621280000000005
lhand -26.532499999999995 22.578100000000003
lfingers nan
lthumb 0.03141709999999809 52.5578
rclavicle 2.300470000000002e-14 3.478730000000025e-16
rhumerus -20.912199999999984 -9.199449999999986 -82.2039
rradius 33.931999999999995
rwrist -2.3120699999999994
rhand -19.1763 nan
rfingers nan
rthumb 7.1349300000000015 -7.43997
13
root 0.060321899999999984 17.772 13.875299999999998 -1.709609999999999 -4.588129999999995 -4.766370000000005
lfemur -24.94160000000003 -4.7791700000000015 -16.245200000000004
ltibia 26.201900000000002
lfoot -3.999309999999997 -4.745979999999996
ltoes 0.2601909999999923
rfemur 10.883300000000009 3.8797500000000005 29.83050000000001
rtibia 36.6818
rfoot -7.305390000000002 3.1133099999999896
rtoes -1.20986
lowerback nan 2.1764700000000032 4.672499999999992
upperback -0.34831200000000007 3.432649999999996 1.0966799999999997
thorax -4.99833 1.5873999999999988 -1.9120700000000046
lowerneck -16.2002 -3.1316100000000002 -1.5533399999999995
upperneck 21.2018 -4.1850000000000005 0.9598380000000006
head 9.4164 -1.9673199999999997 0.0538076
lclavicle 2.3223599999999952e-14 1.426279999999999e-14
lhumerus -40.789699999999996 15.435499999999987 75.5228
lradius 16.400799999999997
lwrist -2.605050000000001
lhand -25.098599999999998 26.42989999999999
lfingers nan
lthumb 1.4163300000000012 56.404899999999984
rclavicle 2.3223599999999952e-14 1.426279999999999e-14
rhumerus -22.041900000000002 -11.284199999999988 -81.7806
rradius 32.49069999999999
rwrist -1.4246499999999909
rhand -19.8978 nan
rfingers nan
rthumb 6.438489999999997 -5.767140000000001
14
root 0.13665299999999983 17.7858 14.755900000000002 -2.7197500000000003 -4.283250000000001 -3.804629999999999
lfemur -22.49049999999999 -3.513149999999999 -18.5219
ltibia 29.050899999999995
lfoot -4.359369999999999 -5.048349999999999
ltoes -2.89035
rfemur 7.443259999999963 2.118159999999998 27.196600000000004
rtibia 46.092099999999995
rfoot 4.885560000000014 5.166239999999984
rtoes -2.1849500000000015
lowerback nan 2.088049999999998 4.199719999999993
upperback -0.06137459999999999 3.2392899999999942 0.75797
thorax -4.714790000000001 1.511000000000001 -1.9698300000000033
lowerneck -15.8266 -3.1296499999999994 -1.6431099999999992
upperneck 21.1549 -4.269570000000001 1.4007299999999994
head 9.34502 -1.9675200000000002 0.21562100000000006
lclavicle 2.676599999999997e-14 -8.348959999999983e-15
lhumerus -40.838100000000004 15.133799999999995 75.0209
lradius 17.733400000000007
lwrist -0.5103839999999975
lhand -26.5109 32.872999999999976
lfingers nan
lthumb 0.05230720000000044 62.85270000000002
rclavicle 2.676599999999997e-14 -8.348959999999983e-15
rhumerus -23.309800000000003 -14.112800000000004 -81.226
rradius 31.722499999999997
rwrist -0.6045679999999978
rhand -19.535699999999995 nan
rfingers nan
rthumb 6.788029999999996 -7.08333
15
root 0.1870790000000003 17.8363 15.5502 -3.355399999999998 -4.903259999999999 -2.7749499999999996
lfemur -19.733700000000006 -2.711189999999998 -20.4604
ltibia 30.449800000000003
lfoot -5.648689999999998 -4.9714899999999975
ltoes 2.0504799999999954
rfemur 1.8596900000000272 1.9922900000000003 25.2255
rtibia 56.66559999999997
rfoot 15.393299999999977 4.172649999999999
rtoes 6.189859999999992
lowerback nan 2.166430000000004 2.9950599999999987
upperback 0.20178299999999996 3.235749999999994 0.7140599999999999
thorax -4.8351500000000005 1.5366800000000005 -1.3633100000000022
lowerneck -16.6064 -3.11303 -1.648919999999999
upperneck 21.3737 -4.18287 1.1680799999999985
head 9.55934 -1.9466 0.13347500000000007
lclavicle -8.476880000000002e-15 -1.406400000000002e-14
lhumerus -40.6366 12.77190000000001 76.647
lradius 21.0617
lwrist 3.811390000000003
lhand -27.7003 32.02179999999999
lfingers nan
lthumb -1.0964200000000006 61.998700000000014
rclavicle -8.476880000000002e-15 -1.406400000000002e-14
rhumerus -24.30200000000001 -15.334899999999994 -80.854
rradius 31.16059999999999
rwrist -0.5167770000000056
rhand -18.4615 nan
rfingers nan
rthumb 7.824959999999999 -6.826060000000002
16
root 0.2336449999999998 17.8692 16.3054 -3.637430000000001 -4.866849999999997 -0.6451450000000012
lfemur -16.671600000000012 -3.452940000000003 -23.469700000000003
ltibia 30.2274
lfoot -7.805139999999999 -3.1953700000000005
ltoes 0.8985960000000066
rfemur -4.696650000000009 0.9433299999999996 22.155399999999997
rtibia 66.48169999999999
rfoot 14.203500000000046 -0.5366300000000068
rtoes 12.225600000000007
lowerback nan 2.0695699999999984 1.0318899999999998
upperback 0.128617 2.8721699999999997 0.10515699999999994
thorax -5.138869999999999 1.3922800000000004 -0.8642029999999985
lowerneck -16.0212 -3.01344 -1.546669999999999
upperneck 20.8913 -4.08014 1.207840000000001
head 9.27931 -1.8942400000000001 0.1564580000000001
lclavicle -8.691589999999985e-15 2.163030000000006e-14
lhumerus -39.544200000000004 11.329500000000014 76.7146
lradius 21.805099999999992
lwrist 4.758530000000001
lhand -28.2286 19.581900000000005
lfingers nan
lthumb -1.6067299999999998 49.5556
rclavicle -8.691589999999985e-15 2.163030000000006e-14
rhumerus -25.034100000000006 -15.909199999999995 -80.9327
rradius 29.561400000000003
rwrist 0.04737079999999949
rhand -18.4364 nan
rfingers nan
rthumb 7.84915 -7.045480000000001
